<svg aria-hidden="true" focusable="false" data-prefix="fab" data-icon="bluesky" class="svg-inline--fa fa-bluesky fa-w-16" role="img" xmlns="http://www.w3.org/2000/svg" viewBox="0 0 512 512"><!--! Font Awesome Free v7.1.0 by @fontawesome - https://fontawesome.com License - https://fontawesome.com/license/free Copyright 2026 Fonticons, Inc. --><path fill="currentColor" d="M351.8 287C349.2 286.6 346.5 286.3 343.8 285.9C346.6 286.2 349.2 286.6 351.8 287zM256 232.9C236.7 192.3 178.3 116.7 125.5 79.4C74.9 43.7 55.6 50 43.1 55.6C28.2 62.2 25.6 84.7 25.6 98C25.6 111.1 32.9 206.4 37.6 222.3C53.2 274.9 108.9 292.6 160.2 286.9C162.8 286.5 165.4 286.2 168.2 285.8C165.5 286.2 162.9 286.6 160.2 286.9C85 297.8 18.3 325.4 105.8 422.8C202.1 522.5 237.7 401.4 256 340.1C274.3 401.4 295.4 518 404.5 422.8C486.4 340.1 427.0 298 351.8 286.9C349.2 286.5 346.5 286.2 343.8 285.8C346.6 286.1 349.2 286.6 351.8 286.9C403.1 292.6 458.7 274.9 474.4 222.3C479.1 206.4 486.4 111.2 486.4 98C486.4 84.6 483.8 62.2 468.9 55.6C457.5 50 438.1 43.7 386.6 79.4C333.7 116.7 275.3 192.3 256 232.9z"/></svg>